# xmcd CD database file
#
# Track frame offsets:
#	150
#	13870
#	36510
#	57105
#	71902
#	87242
#	111467
#	134972
#	156450
#
# Disc length: 2330 seconds
#
# Revision: 0
# Processed by: cddbd v1.5.2PL0 Copyright (c) Steve Scherf et al.
# Submitted via: CDex 1.51
#
DISCID=8d091809
DTITLE=Louis Armstrong And His Allstars - SATCH PLAYS FATS
DYEAR=1955
DGENRE=Jazz
TTITLE0=Honeysuckle Rose
TTITLE1=Blue Turning Grey Over You
TTITLE2=I'm Crazy 'bout My Baby and My Baby's Crazy 'bout Me
TTITLE3=I've Got A Feeling I'm Falling
TTITLE4=Keepin' Out Of Mischief Now
TTITLE5=All That Meat And No Potatoes
TTITLE6=Squeeze Me
TTITLE7=Black And Blue
TTITLE8=Ain't Misbehavin'
EXTD=YEAR: 1955
EXTT0=
EXTT1=
EXTT2=
EXTT3=
EXTT4=
EXTT5=
EXTT6=
EXTT7=
EXTT8=
PLAYORDER=
